#!OML:ASF C:\ViconDB\ViconDB\414\Spring2016\041811\Spring2016.ASF
:FULLY-SPECIFIED
:DEGREES
369
root 11.1307 17.6846 -9.83358 20.8198 34.6846 238.786
lowerback 33.9213 5.6472 2.87983
upperback 6.36872 6.4151 -6.16314
thorax -9.28631 2.45998 -10.4932
lowerneck -25.0637 7.55332 3.15931
upperneck 29.8461 3.44144 21.2937
head 14.3605 4.57612 9.02237
rclavicle -1.52667e-013 -3.49861e-014
rhumerus 61.5265 -33.2173 -32.2293
rradius 38.5392
rwrist 18.9811
rhand -65.6167 -78.6328
rfingers 7.12502
rthumb -37.4808 104.571
lclavicle 7.31528e-014 -3.18055e-015
lhumerus 14.0327 34.3715 -6.44978
lradius 34.6401
lwrist 10.4818
lhand -58.1754 85.4649
lfingers 7.12502
lthumb -30.4132 -112.977
rfemur 162.363 239.763 -146.303
rtibia -72.8581
rfoot 67.8689 -106.403
rtoes 18.4373
lfemur -55.0285 12.921 35.6918
ltibia 47.373
lfoot -20.0204 24.3391
ltoes 0.49447
370
root 11.0983 17.5886 -9.98959 22.2897 33.3447 241.116
lowerback 34.3909 5.53555 2.1314
upperback 6.61166 5.90748 -6.71549
thorax -9.31642 2.22898 -10.5299
lowerneck -25.0195 7.60621 3.26936
upperneck 30.0945 3.37415 21.4233
head 14.4785 4.56361 9.08263
rclavicle -1.52667e-013 -3.49861e-014
rhumerus 61.5265 -33.2173 -32.2293
rradius 38.5392
rwrist 18.9811
rhand -65.6167 -78.6328
rfingers 7.12502
rthumb -37.4808 104.571
lclavicle -1.00585e-013 6.99722e-014
lhumerus 12.8248 34.4634 -6.55889
lradius 34.4427
lwrist 10.7306
lhand -58.1443 85.4523
lfingers 7.12502
lthumb -30.3836 -112.969
rfemur 162.678 239.541 -145.844
rtibia -72.9996
rfoot 70.0465 -106.705
rtoes 21.0923
lfemur -55.2535 14.3766 36.3299
ltibia 48.2137
lfoot -20.8751 24.4336
ltoes 1.72294
371
root 11.0598 17.4864 -10.1498 23.9474 32.0715 243.394
lowerback 34.5154 5.39701 1.39309
upperback 6.84891 5.40668 -7.16715
thorax -9.21969 2.01481 -10.4363
lowerneck -24.8724 7.64136 3.27383
upperneck 30.1758 3.38897 21.427
head 14.4796 4.55794 9.08191
rclavicle -1.52667e-013 -3.49861e-014
rhumerus 61.5265 -33.2173 -32.2293
rradius 38.5392
rwrist 18.9811
rhand -65.6167 -78.6328
rfingers 7.12502
rthumb -37.4808 104.571
lclavicle -1.33583e-013 1.55847e-013
lhumerus 11.4871 34.3809 -6.56122
lradius 34.3971
lwrist 11.2826
lhand -58.1992 86.2674
lfingers 7.12502
lthumb -30.4359 -113.775
rfemur 162.453 239.237 -144.775
rtibia -73.2549
rfoot 73.1306 -106.336
rtoes 22.1164
lfemur -55.7396 15.8524 36.9738
ltibia 49.1111
lfoot -21.5563 24.7254
ltoes 2.08071
372
root 11.0247 17.3758 -10.3029 25.5948 30.7893 245.86
lowerback 34.6618 5.19873 0.588175
upperback 7.13525 4.80572 -7.6909
thorax -9.08913 1.75741 -10.3459
lowerneck -24.7947 7.71983 3.53124
upperneck 30.3122 3.39773 21.2302
head 14.5372 4.55656 8.96387
rclavicle -1.52667e-013 -3.49861e-014
rhumerus 61.5265 -33.2173 -32.2293
rradius 38.5392
rwrist 18.9811
rhand -65.6167 -78.6328
rfingers 7.12502
rthumb -37.4808 104.571
lclavicle -1.04561e-013 8.26944e-014
lhumerus 10.0569 34.3341 -6.61726
lradius 34.42
lwrist 11.5455
lhand -58.0334 86.1847
lfingers 7.12502
lthumb -30.2777 -113.721
rfemur 162.495 238.994 -144.046
rtibia -73.491
rfoot 76.3224 -106.147
rtoes 22.5027
lfemur -56.3094 17.6108 37.0824
ltibia 50.0978
lfoot -21.9784 24.6205
ltoes 2.40165
373
root 10.9924 17.254 -10.4529 27.1923 29.6322 248.204
lowerback 34.6426 4.88126 0.0301728
upperback 7.44132 4.16872 -8.21167
thorax -8.8615 1.48719 -10.3618
lowerneck -24.7007 7.83555 3.79312
upperneck 30.5403 3.38828 21.268
head 14.6365 4.57177 8.95958
rclavicle -1.52667e-013 -3.49861e-014
rhumerus 61.5265 -33.2173 -32.2293
rradius 38.5392
rwrist 18.9811
rhand -65.6167 -78.6328
rfingers 7.12502
rthumb -37.4808 104.571
lclavicle 9.18385e-014 -6.04305e-014
lhumerus 8.74822 34.2345 -6.63538
lradius 34.408
lwrist 11.9085
lhand -57.91 86.3512
lfingers 7.12502
lthumb -30.1601 -113.909
rfemur 162.498 238.754 -143.037
rtibia -73.6959
rfoot 80.3374 -105.854
rtoes 22.4121
lfemur -57.0442 19.4351 37.1288
ltibia 51.1022
lfoot -22.3037 24.5977
ltoes 2.47915
374
root 10.9582 17.1236 -10.5949 28.7728 28.3779 250.578
lowerback 34.6972 4.58563 -0.506911
upperback 7.64762 3.55466 -8.77605
thorax -8.76666 1.21922 -10.4587
lowerneck -24.5019 8.00101 4.09496
upperneck 30.8041 3.3829 21.5377
head 14.732 4.61347 9.05013
rclavicle -1.52667e-013 -3.49861e-014
rhumerus 61.5265 -33.2173 -32.2293
rradius 38.5392
rwrist 18.9811
rhand -65.6167 -78.6328
rfingers 7.12502
rthumb -37.4808 104.571
lclavicle -4.92986e-014 5.08889e-014
lhumerus 7.30099 33.5716 -6.75914
lradius 34.5809
lwrist 12.406
lhand -57.7779 86.7983
lfingers 7.12502
lthumb -30.034 -114.379
rfemur 162.6 238.409 -142.149
rtibia -73.8379
rfoot 86.3258 -105.471
rtoes 21.2785
lfemur -57.7065 21.2404 37.0701
ltibia 52.1335
lfoot -22.9376 24.4313
ltoes 3.26722
375
root 10.9414 16.9731 -10.7431 30.4704 27.0933 253.34
lowerback 34.6242 4.24711 -1.2412
upperback 8.07058 2.85168 -9.34928
thorax -8.4037 0.922694 -10.4027
lowerneck -24.5859 8.20969 4.53391
upperneck 31.1026 3.41397 21.5302
head 14.9118 4.66687 9.03252
rclavicle -1.52667e-013 -3.49861e-014
rhumerus 61.5265 -33.2173 -32.2293
rradius 38.5392
rwrist 18.9811
rhand -65.6167 -78.6328
rfingers 7.12502
rthumb -37.4808 104.571
lclavicle -1.49089e-014 7.63333e-014
lhumerus 5.94008 33.2643 -6.57125
lradius 34.6804
lwrist 12.5996
lhand -57.5318 87.3318
lfingers 7.12502
lthumb -29.7991 -114.955
rfemur 162.478 238.225 -141.553
rtibia -73.7797
rfoot 93.8554 -104.654
rtoes 17.6074
lfemur -58.6375 22.8723 36.3932
ltibia 53.2548
lfoot -22.0292 24.0486
ltoes 1.86162
376
root 10.897 16.8308 -10.872 31.7966 26.0895 255.892
lowerback 34.7633 3.89784 -1.80964
upperback 8.45169 2.21802 -9.70126
thorax -8.14719 0.652769 -10.2314
lowerneck -24.4745 8.34186 4.89043
upperneck 31.4072 3.37026 21.5462
head 15.0574 4.67111 9.00937
rclavicle -1.52667e-013 -3.49861e-014
rhumerus 61.5265 -33.2173 -32.2293
rradius 38.5392
rwrist 18.9811
rhand -65.6167 -78.6328
rfingers 7.12502
rthumb -37.4808 104.571
lclavicle -1.78906e-014 -4.13472e-014
lhumerus 4.54631 32.2287 -6.3422
lradius 34.924
lwrist 13.4119
lhand -57.2938 88.0864
lfingers 7.12502
lthumb -29.572 -115.75
rfemur 163.163 238.266 -141.084
rtibia -73.8485
rfoot 101.564 -104.572
rtoes 15.7876
lfemur -59.3933 23.9444 36.3199
ltibia 54.3837
lfoot -21.9632 23.757
ltoes 1.65549
377
root 10.8504 16.6703 -10.9975 33.3366 24.6573 258.872
lowerback 34.9403 3.71486 -2.69615
upperback 8.78729 1.62956 -10.3023
thorax -7.94777 0.395502 -10.1855
lowerneck -24.3773 8.35758 5.18784
upperneck 31.5318 3.07141 21.9861
head 15.1638 4.60972 9.12748
rclavicle -1.52667e-013 -3.49861e-014
rhumerus 61.5265 -33.2173 -32.2293
rradius 38.5392
rwrist 18.9811
rhand -65.6167 -78.6328
rfingers 7.12502
rthumb -37.4808 104.571
lclavicle -1.18078e-013 1.145e-013
lhumerus 3.82986 31.3376 -5.66835
lradius 35.0869
lwrist 14.2317
lhand -57.2797 88.7903
lfingers 7.12502
lthumb -29.5586 -116.457
rfemur 163.815 238.109 -141.353
rtibia -73.7587
rfoot 111.718 -104.686
rtoes 12.717
lfemur -59.9271 24.5214 35.9821
ltibia 55.7011
lfoot -22.6921 23.3628
ltoes 2.5773
378
root 10.7834 16.5015 -11.1207 34.8908 23.4851 261.602
lowerback 34.676 3.45878 -3.19332
upperback 9.06202 1.17786 -10.6403
thorax -7.62034 0.208101 -10.0983
lowerneck -23.6727 8.12887 5.04733
upperneck 31.382 2.67843 22.4858
head 14.9895 4.4345 9.22535
rclavicle -1.52667e-013 -3.49861e-014
rhumerus 61.5265 -33.2173 -32.2293
rradius 38.5392
rwrist 18.9811
rhand -65.6167 -78.6328
rfingers 7.12502
rthumb -37.4808 104.571
lclavicle -1.70955e-014 9.85972e-014
lhumerus 3.1519 29.9812 -4.6509
lradius 35.2539
lwrist 15.2262
lhand -57.1912 89.2931
lfingers 7.12502
lthumb -29.4741 -116.974
rfemur 164.398 237.973 -141.121
rtibia -73.7814
rfoot 122.122 -105.265
rtoes 8.47836
lfemur -60.8069 25.313 35.8217
ltibia 57.0403
lfoot -22.9067 22.7799
ltoes 3.1897
379
root 10.6952 16.3231 -11.2355 36.3902 22.1483 264.521
lowerback 34.4657 3.30853 -4.05124
upperback 9.37446 0.749238 -10.9177
thorax -7.25601 0.0294012 -9.75778
lowerneck -23.2939 7.91429 4.86482
upperneck 31.4191 2.28639 22.8616
head 14.9759 4.25367 9.33678
rclavicle -7.51406e-014 1.43125e-013
rhumerus 16.3067 -60.9787 4.22429
rradius 26.771
rwrist 31.7349
rhand -55.3002 -41.5879
rfingers 7.12502
rthumb -27.6673 -69.5731
lclavicle -7.51406e-014 1.43125e-013
lhumerus 2.74532 28.8987 -3.27688
lradius 35.3058
lwrist 15.8297
lhand -57.0673 89.7048
lfingers 7.12502
lthumb -29.3558 -117.407
rfemur 165.498 237.826 -141.522
rtibia -73.8989
rfoot 132.132 -106.402
rtoes 3.61117
lfemur -61.5037 25.8304 35.6252
ltibia 58.4579
lfoot -23.0597 21.9555
ltoes 3.99189
380
root 10.6376 16.1346 -11.3506 37.7196 20.9274 267.382
lowerback 34.4658 3.10433 -4.66154
upperback 9.64945 0.32576 -11.125
thorax -7.0043 -0.151185 -9.4895
lowerneck -22.9688 7.62764 4.52223
upperneck 31.3448 1.81843 23.3882
head 14.9325 4.04084 9.52496
rclavicle 9.50191e-014 -3.18055e-014
rhumerus 6.98774 -59.1297 11.189
rradius 27.6057
rwrist 29.5103
rhand -54.7576 -41.3849
rfingers 7.12502
rthumb -27.1483 -69.4523
lclavicle 9.50191e-014 -3.18055e-014
lhumerus 2.13874 27.033 -2.07268
lradius 35.6297
lwrist 17.116
lhand -56.8851 269.528
lfingers 7.12502
lthumb -29.1818 -118.205
rfemur 167.004 237.71 -142.038
rtibia -74.0264
rfoot 141.217 -107.894
rtoes -1.57581
lfemur -62.1397 26.0428 35.4541
ltibia 59.7198
lfoot -23.4162 21.2676
ltoes 5.22344
381
root 10.5771 15.939 -11.465 39.006 19.7078 270.327
lowerback 34.2911 2.94732 -5.24764
upperback 9.97213 0.0093836 -11.2512
thorax -6.61153 -0.283623 -9.18052
lowerneck -22.4151 7.28778 4.05965
upperneck 31.1915 1.3513 23.9295
head 14.7972 3.79942 9.70861
rclavicle 6.55989e-014 1.90833e-014
rhumerus 0.399664 -58.1698 15.5209
rradius 28.231
rwrist 27.3487
rhand -54.2518 -40.5653
rfingers 7.12502
rthumb -26.6643 -68.7072
lclavicle 6.55989e-014 1.90833e-014
lhumerus 1.48951 24.4714 -0.918283
lradius 36.2212
lwrist 19.2819
lhand -56.8286 268.724
lfingers 7.12502
lthumb -29.1278 -119.018
rfemur 168.848 237.607 -142.778
rtibia -74.3399
rfoot 148.617 -109.92
rtoes -5.69912
lfemur -62.9929 26.4432 34.9668
ltibia 61.0656
lfoot -23.0224 20.3774
ltoes 4.09427
382
root 10.5085 15.732 -11.5703 40.2473 18.3192 273.125
lowerback 34.0512 2.86847 -5.86328
upperback 10.227 -0.230213 -11.441
thorax -6.25696 -0.386056 -8.95861
lowerneck -22.3408 7.03537 4.05208
upperneck 31.405 0.781117 24.1939
head 14.9882 3.55833 9.78014
rclavicle -1.13705e-013 -2.54444e-014
rhumerus -6.5429 -55.8172 19.6369
rradius 29.5544
rwrist 23.0827
rhand -53.7153 -40.5222
rfingers 7.12502
rthumb -26.1508 -68.7412
lclavicle -1.13705e-013 -2.54444e-014
lhumerus 1.48561 22.6549 0.921178
lradius 36.3956
lwrist 20.2452
lhand -56.7041 268.043
lfingers 7.12502
lthumb -29.0089 -119.719
rfemur 171.053 237.244 -143.631
rtibia -74.8862
rfoot 155.518 -112.246
rtoes -10.6311
lfemur -63.6664 26.879 34.5665
ltibia 62.6988
lfoot -27.0056 14.8087
ltoes -3.86893
383
root 10.4129 15.5299 -11.6771 41.3392 17.2115 275.976
lowerback 33.5364 2.75117 -6.54023
upperback 10.6855 -0.431017 -11.4378
thorax -5.55298 -0.473996 -8.49851
lowerneck -22.2604 6.77261 3.66022
upperneck 31.3818 0.265459 24.926
head 15.0584 3.342 10.1142
rclavicle -2.38542e-014 -5.40694e-014
rhumerus -11.9273 -55.6364 22.5036
rradius 29.7962
rwrist 21.6907
rhand -52.7814 -39.9405
rfingers 7.12502
rthumb -25.2564 -68.2888
lclavicle -2.38542e-014 -5.40694e-014
lhumerus 1.59814 20.876 2.78914
lradius 36.3465
lwrist 21.3809
lhand -56.7993 267.058
lfingers 7.12502
lthumb -29.0998 -120.689
rfemur 174.297 237.159 -144.814
rtibia -75.8497
rfoot 159.568 -115.299
rtoes -13.5064
lfemur -64.9343 28.1948 33.0168
ltibia 65.152
lfoot -24.1743 1.58696
ltoes -1.80906
